<svg width="7" height="5" viewBox="0 0 7 5" fill="none" xmlns="http://www.w3.org/2000/svg">
<path fill-rule="evenodd" clip-rule="evenodd" d="M3.23489 0.873566C3.31998 0.788509 3.43536 0.740727 3.55566 0.740727C3.67597 0.740727 3.79135 0.788509 3.87643 0.873566L6.44303 3.44017C6.48637 3.48202 6.52093 3.53208 6.54471 3.58744C6.56849 3.64279 6.581 3.70233 6.58153 3.76257C6.58205 3.82281 6.57057 3.88255 6.54776 3.93831C6.52494 3.99407 6.49126 4.04473 6.44866 4.08733C6.40606 4.12993 6.3554 4.16362 6.29964 4.18643C6.24388 4.20924 6.18414 4.22072 6.1239 4.2202C6.06365 4.21967 6.00412 4.20716 5.94877 4.18338C5.89341 4.1596 5.84335 4.12504 5.8015 4.0817L3.55566 1.83587L1.30983 4.0817C1.22426 4.16435 1.10965 4.21008 0.990694 4.20905C0.871734 4.20801 0.757939 4.1603 0.673819 4.07618C0.589698 3.99206 0.541983 3.87826 0.540949 3.7593C0.539915 3.64034 0.585646 3.52574 0.668292 3.44017L3.23489 0.873566Z" fill="white"/>
</svg>
