<svg width="7" height="5" viewBox="0 0 7 5" fill="none" xmlns="http://www.w3.org/2000/svg">
<path fill-rule="evenodd" clip-rule="evenodd" d="M3.76511 4.12643C3.68002 4.21149 3.56464 4.25927 3.44434 4.25927C3.32403 4.25927 3.20865 4.21149 3.12357 4.12643L0.556968 1.55983C0.513634 1.51798 0.47907 1.46792 0.455292 1.41256C0.431514 1.35721 0.418998 1.29767 0.418474 1.23743C0.417951 1.17719 0.42943 1.11745 0.452243 1.06169C0.475056 1.00593 0.508744 0.955271 0.551344 0.912672C0.593943 0.870072 0.6446 0.836383 0.700359 0.813571C0.756117 0.790758 0.815861 0.779279 0.876103 0.779802C0.936346 0.780326 0.995881 0.792842 1.05123 0.81662C1.10659 0.840398 1.15665 0.874962 1.1985 0.918295L3.44434 3.16413L5.69017 0.918295C5.77574 0.83565 5.89035 0.789919 6.00931 0.790953C6.12827 0.791986 6.24206 0.839702 6.32618 0.923822C6.4103 1.00794 6.45802 1.12174 6.45905 1.2407C6.46008 1.35966 6.41435 1.47426 6.33171 1.55983L3.76511 4.12643Z" fill="black"/>
</svg>
